HIERARCHY
ROOT Hips
{
	OFFSET 0.000000 87.230942 0.000000
	CHANNELS 6 Xposition Yposition Zposition Xrotation Yrotation Zrotation
	JOINT Pelvis
	{
		OFFSET 0.000000 0.000000 0.000000
		CHANNELS 3 Xrotation Yrotation Zrotation
		JOINT LeftUpLeg
		{
			OFFSET 12.017000 -9.376404 -2.439400
			CHANNELS 3 Xrotation Yrotation Zrotation
			JOINT LeftLeg
			{
				OFFSET -0.007312 -32.846973 2.110600
				CHANNELS 3 Xrotation Yrotation Zrotation
				JOINT LeftFoot
				{
					OFFSET 0.007312 -32.065170 -0.570400
					CHANNELS 3 Xrotation Yrotation Zrotation
					JOINT LeftToeBase
					{
						OFFSET 0.728300 -11.045900 13.180700
						CHANNELS 3 Xrotation Yrotation Zrotation
						End Site
						{
							OFFSET 0.000000 17.212589 0.000000
						}
					}
				}
				JOINT LeftPantLeg
				{
					OFFSET 0.002788 -16.709013 -3.143600
					CHANNELS 3 Xrotation Yrotation Zrotation
					End Site
					{
						OFFSET -0.605125 24.528742 0.000000
					}
				}
			}
			JOINT Left_Butt
			{
				OFFSET -6.630234 1.326584 -3.183700
				CHANNELS 3 Xrotation Yrotation Zrotation
				End Site
				{
					OFFSET -0.498041 20.188049 0.000000
				}
			}
		}
		JOINT RightUpLeg
		{
			OFFSET -11.717000 -9.376404 -2.439400
			CHANNELS 3 Xrotation Yrotation Zrotation
			JOINT RightLeg
			{
				OFFSET -0.003241 -32.846912 2.110600
				CHANNELS 3 Xrotation Yrotation Zrotation
				JOINT RightFoot
				{
					OFFSET 0.003241 -32.065136 -0.570500
					CHANNELS 3 Xrotation Yrotation Zrotation
					JOINT RightToeBase
					{
						OFFSET -0.728300 -11.045901 13.180700
						CHANNELS 3 Xrotation Yrotation Zrotation
						End Site
						{
							OFFSET 0.000000 17.212593 0.000000
						}
					}
				}
				JOINT RightPantLeg
				{
					OFFSET 0.008142 -16.708982 -3.143700
					CHANNELS 3 Xrotation Yrotation Zrotation
					End Site
					{
						OFFSET 0.605088 24.528715 0.000000
					}
				}
			}
			JOINT Right_Butt
			{
				OFFSET 6.630732 1.326584 -3.183700
				CHANNELS 3 Xrotation Yrotation Zrotation
				End Site
				{
					OFFSET 0.498015 20.188240 0.000000
				}
			}
		}
	}
	JOINT Spine
	{
		OFFSET -0.062400 7.848404 3.918300
		CHANNELS 3 Xrotation Yrotation Zrotation
		JOINT Spine1
		{
			OFFSET -0.072800 11.422302 0.713400
			CHANNELS 3 Xrotation Yrotation Zrotation
			JOINT Spine2
			{
				OFFSET -0.083200 13.054001 -1.931600
				CHANNELS 3 Xrotation Yrotation Zrotation
				JOINT Neck
				{
					OFFSET -0.092200 14.121796 -5.138800
					CHANNELS 3 Xrotation Yrotation Zrotation
					JOINT Head
					{
						OFFSET 0.000200 10.447403 -0.842000
						CHANNELS 3 Xrotation Yrotation Zrotation
						JOINT Visor
						{
							OFFSET 0.457100 25.671204 16.550400
							CHANNELS 3 Xrotation Yrotation Zrotation
							End Site
							{
								OFFSET 0.000000 26.061493 0.000000
							}
						}
						JOINT HairMidA
						{
							OFFSET 0.459400 31.585403 8.437400
							CHANNELS 3 Xrotation Yrotation Zrotation
							End Site
							{
								OFFSET 0.000000 26.061493 0.000000
							}
						}
						JOINT HairMidB
						{
							OFFSET 0.464000 33.309204 -8.389700
							CHANNELS 3 Xrotation Yrotation Zrotation
							End Site
							{
								OFFSET 0.000000 26.061493 0.000000
							}
						}
						JOINT HairMidC
						{
							OFFSET 0.466600 27.991196 -17.375099
							CHANNELS 3 Xrotation Yrotation Zrotation
							End Site
							{
								OFFSET 0.000000 26.061493 0.000000
							}
						}
						JOINT HairMidD
						{
							OFFSET 0.467700 17.888092 -21.169500
							CHANNELS 3 Xrotation Yrotation Zrotation
							End Site
							{
								OFFSET 0.000000 26.061493 0.000000
							}
						}
						JOINT HairMidE
						{
							OFFSET 5.325700 3.514603 -14.369699
							CHANNELS 3 Xrotation Yrotation Zrotation
							End Site
							{
								OFFSET 0.000000 26.061493 0.000000
							}
						}
						JOINT HairMidF
						{
							OFFSET -4.394100 3.514603 -14.372400
							CHANNELS 3 Xrotation Yrotation Zrotation
							End Site
							{
								OFFSET 0.000000 26.061493 0.000000
							}
						}
						JOINT HairLeftA
						{
							OFFSET 15.319900 25.746506 2.623300
							CHANNELS 3 Xrotation Yrotation Zrotation
							End Site
							{
								OFFSET 0.000000 26.061493 0.000000
							}
						}
						JOINT HairLeftB
						{
							OFFSET 12.619500 29.289398 -8.731499
							CHANNELS 3 Xrotation Yrotation Zrotation
							End Site
							{
								OFFSET 0.000000 26.061493 0.000000
							}
						}
						JOINT HairLeftC
						{
							OFFSET 15.714800 15.959900 2.909800
							CHANNELS 3 Xrotation Yrotation Zrotation
							End Site
							{
								OFFSET 0.000000 26.061493 0.000000
							}
						}
						JOINT HairLeftD
						{
							OFFSET 16.101700 18.437408 -7.553200
							CHANNELS 3 Xrotation Yrotation Zrotation
							End Site
							{
								OFFSET 0.000000 26.061493 0.000000
							}
						}
						JOINT HairLeftE
						{
							OFFSET 9.731900 17.915009 -18.316799
							CHANNELS 3 Xrotation Yrotation Zrotation
							End Site
							{
								OFFSET 0.000000 26.061493 0.000000
							}
						}
						JOINT HairLeftF
						{
							OFFSET 11.204300 4.953598 -9.668100
							CHANNELS 3 Xrotation Yrotation Zrotation
							End Site
							{
								OFFSET 0.000000 26.061493 0.000000
							}
						}
						JOINT HairRightA
						{
							OFFSET -14.397900 25.746307 2.615100
							CHANNELS 3 Xrotation Yrotation Zrotation
							End Site
							{
								OFFSET 0.000000 26.061493 0.000000
							}
						}
						JOINT HairRightB
						{
							OFFSET -11.691200 29.289200 -8.738199
							CHANNELS 3 Xrotation Yrotation Zrotation
							End Site
							{
								OFFSET 0.000000 26.061493 0.000000
							}
						}
						JOINT HairRightC
						{
							OFFSET -14.792900 15.959702 2.901400
							CHANNELS 3 Xrotation Yrotation Zrotation
							End Site
							{
								OFFSET 0.000000 26.061493 0.000000
							}
						}
						JOINT HairRightD
						{
							OFFSET -15.174000 18.437195 -7.561900
							CHANNELS 3 Xrotation Yrotation Zrotation
							End Site
							{
								OFFSET 0.000000 26.061493 0.000000
							}
						}
						JOINT HairRightE
						{
							OFFSET -8.798200 17.914902 -18.322001
							CHANNELS 3 Xrotation Yrotation Zrotation
							End Site
							{
								OFFSET 0.000000 26.061493 0.000000
							}
						}
						JOINT HairRightF
						{
							OFFSET -10.275200 4.953506 -9.674099
							CHANNELS 3 Xrotation Yrotation Zrotation
							End Site
							{
								OFFSET 0.000000 26.061493 0.000000
							}
						}
					}
				}
				JOINT LeftShoulder
				{
					OFFSET 5.133500 7.341202 -1.867600
					CHANNELS 3 Xrotation Yrotation Zrotation
					JOINT LeftArm
					{
						OFFSET 8.072663 0.936867 -2.176600
						CHANNELS 3 Xrotation Yrotation Zrotation
						JOINT LeftForeArm
						{
							OFFSET 31.271999 0.000000 0.000000
							CHANNELS 3 Xrotation Yrotation Zrotation
							JOINT LeftHand
							{
								OFFSET 31.771030 0.000000 0.000000
								CHANNELS 3 Xrotation Yrotation Zrotation
								JOINT LeftHandThumb1
								{
									OFFSET 2.886520 -2.557846 4.416640
									CHANNELS 3 Xrotation Yrotation Zrotation
									JOINT LeftHandThumb2
									{
										OFFSET 2.371025 -1.368912 1.368911
										CHANNELS 3 Xrotation Yrotation Zrotation
										JOINT LeftHandThumb3
										{
											OFFSET 2.243378 -1.295212 1.295213
											CHANNELS 3 Xrotation Yrotation Zrotation
											End Site
											{
												OFFSET -0.332611 2.876945 0.020015
											}
										}
									}
								}
								JOINT LeftHandIndex1
								{
									OFFSET 8.568985 -0.641945 3.119977
									CHANNELS 3 Xrotation Yrotation Zrotation
									JOINT LeftHandIndex2
									{
										OFFSET 3.348503 0.000000 0.000000
										CHANNELS 3 Xrotation Yrotation Zrotation
										JOINT LeftHandIndex3
										{
											OFFSET 3.314552 0.000000 0.000000
											CHANNELS 3 Xrotation Yrotation Zrotation
											End Site
											{
												OFFSET -1.032898 3.075485 0.678796
											}
										}
									}
								}
								JOINT LeftHandMiddle1
								{
									OFFSET 8.124603 0.000000 0.000000
									CHANNELS 3 Xrotation Yrotation Zrotation
									JOINT LeftHandMiddle2
									{
										OFFSET 4.166275 0.000000 0.000000
										CHANNELS 3 Xrotation Yrotation Zrotation
										JOINT LeftHandMiddle3
										{
											OFFSET 3.018135 0.000000 0.000000
											CHANNELS 3 Xrotation Yrotation Zrotation
											End Site
											{
												OFFSET -1.032700 2.767982 0.617226
											}
										}
									}
								}
								JOINT LeftHandRing1
								{
									OFFSET 8.571686 -0.031357 -2.884048
									CHANNELS 3 Xrotation Yrotation Zrotation
									JOINT LeftHandRing2
									{
										OFFSET 3.671181 0.000000 0.000000
										CHANNELS 3 Xrotation Yrotation Zrotation
										JOINT LeftHandRing3
										{
											OFFSET 2.728851 0.000000 0.000000
											CHANNELS 3 Xrotation Yrotation Zrotation
											End Site
											{
												OFFSET -0.815796 2.539223 0.577389
											}
										}
									}
								}
								JOINT LeftHandPinky1
								{
									OFFSET 7.854515 -0.675232 -5.213020
									CHANNELS 3 Xrotation Yrotation Zrotation
									JOINT LeftHandPinky2
									{
										OFFSET 3.068596 0.000000 0.000000
										CHANNELS 3 Xrotation Yrotation Zrotation
										JOINT LeftHandPinky3
										{
											OFFSET 2.396042 0.000000 0.000000
											CHANNELS 3 Xrotation Yrotation Zrotation
											End Site
											{
												OFFSET -0.524597 2.267998 0.567429
											}
										}
									}
								}
							}
							JOINT LeftSleeve
							{
								OFFSET 19.684509 -0.200119 0.476146
								CHANNELS 3 Xrotation Yrotation Zrotation
								End Site
								{
									OFFSET -0.031017 25.731133 -0.002868
								}
							}
						}
					}
				}
				JOINT RightShoulder
				{
					OFFSET -4.395900 7.341202 -1.870200
					CHANNELS 3 Xrotation Yrotation Zrotation
					JOINT RightArm
					{
						OFFSET -8.071453 0.936867 -2.181100
						CHANNELS 3 Xrotation Yrotation Zrotation
						JOINT RightForeArm
						{
							OFFSET -31.272011 0.000000 0.000000
							CHANNELS 3 Xrotation Yrotation Zrotation
							JOINT RightHand
							{
								OFFSET -31.771019 0.000000 0.000000
								CHANNELS 3 Xrotation Yrotation Zrotation
								JOINT RightHandThumb1
								{
									OFFSET -2.886520 -2.557808 4.416626
									CHANNELS 3 Xrotation Yrotation Zrotation
									JOINT RightHandThumb2
									{
										OFFSET -2.371056 -1.368927 1.368928
										CHANNELS 3 Xrotation Yrotation Zrotation
										JOINT RightHandThumb3
										{
											OFFSET -2.243362 -1.295204 1.295206
											CHANNELS 3 Xrotation Yrotation Zrotation
											End Site
											{
												OFFSET 0.332642 2.876938 0.020047
											}
										}
									}
								}
								JOINT RightHandIndex1
								{
									OFFSET -8.568993 -0.641953 3.120017
									CHANNELS 3 Xrotation Yrotation Zrotation
									JOINT RightHandIndex2
									{
										OFFSET -3.348518 0.000000 0.000000
										CHANNELS 3 Xrotation Yrotation Zrotation
										JOINT RightHandIndex3
										{
											OFFSET -3.314552 0.000000 0.000000
											CHANNELS 3 Xrotation Yrotation Zrotation
											End Site
											{
												OFFSET 1.032898 3.075478 0.678804
											}
										}
									}
								}
								JOINT RightHandMiddle1
								{
									OFFSET -8.124588 0.000000 0.000000
									CHANNELS 3 Xrotation Yrotation Zrotation
									JOINT RightHandMiddle2
									{
										OFFSET -4.166275 0.000000 0.000000
										CHANNELS 3 Xrotation Yrotation Zrotation
										JOINT RightHandMiddle3
										{
											OFFSET -3.018097 0.000000 0.000000
											CHANNELS 3 Xrotation Yrotation Zrotation
											End Site
											{
												OFFSET 1.032700 2.767937 0.617197
											}
										}
									}
								}
								JOINT RightHandRing1
								{
									OFFSET -8.571747 -0.031349 -2.884061
									CHANNELS 3 Xrotation Yrotation Zrotation
									JOINT RightHandRing2
									{
										OFFSET -3.671204 0.000000 0.000000
										CHANNELS 3 Xrotation Yrotation Zrotation
										JOINT RightHandRing3
										{
											OFFSET -2.728874 0.000000 0.000000
											CHANNELS 3 Xrotation Yrotation Zrotation
											End Site
											{
												OFFSET 0.815804 2.539261 0.577413
											}
										}
									}
								}
								JOINT RightHandPinky1
								{
									OFFSET -7.854561 -0.675247 -5.212970
									CHANNELS 3 Xrotation Yrotation Zrotation
									JOINT RightHandPinky2
									{
										OFFSET -3.068550 0.000000 0.000000
										CHANNELS 3 Xrotation Yrotation Zrotation
										JOINT RightHandPinky3
										{
											OFFSET -2.395981 0.000000 0.000000
											CHANNELS 3 Xrotation Yrotation Zrotation
											End Site
											{
												OFFSET 0.524605 2.267952 0.567413
											}
										}
									}
								}
							}
							JOINT RightSleeve
							{
								OFFSET -19.684753 -0.200165 0.476065
								CHANNELS 3 Xrotation Yrotation Zrotation
								End Site
								{
									OFFSET 0.031342 25.731255 -0.002917
								}
							}
						}
					}
				}
				JOINT Hood
				{
					OFFSET 0.369700 14.447800 -5.317800
					CHANNELS 3 Xrotation Yrotation Zrotation
					JOINT Hood1
					{
						OFFSET 0.001700 -5.553802 -5.895100
						CHANNELS 3 Xrotation Yrotation Zrotation
						JOINT Hood2
						{
							OFFSET -0.000200 -8.380501 0.763600
							CHANNELS 3 Xrotation Yrotation Zrotation
							End Site
							{
								OFFSET 0.000000 8.415215 0.000000
							}
						}
					}
				}
				JOINT Left_Breast
				{
					OFFSET 5.682500 3.120102 3.188800
					CHANNELS 3 Xrotation Yrotation Zrotation
					End Site
					{
						OFFSET 0.000000 10.528564 0.000000
					}
				}
				JOINT Right_Breast
				{
					OFFSET -4.947600 3.120102 3.185900
					CHANNELS 3 Xrotation Yrotation Zrotation
					End Site
					{
						OFFSET 0.000000 10.528564 0.000000
					}
				}
				JOINT Whistle
				{
					OFFSET 0.368200 11.471298 0.095400
					CHANNELS 3 Xrotation Yrotation Zrotation
					JOINT Whistle1
					{
						OFFSET -0.002000 -6.349899 7.479800
						CHANNELS 3 Xrotation Yrotation Zrotation
						JOINT Whistle2
						{
							OFFSET -0.001300 -8.217598 4.717600
							CHANNELS 3 Xrotation Yrotation Zrotation
							End Site
							{
								OFFSET 0.000000 9.475479 0.000000
							}
						}
					}
				}
			}
		}
		JOINT Belly
		{
			OFFSET 0.212400 1.593002 3.163700
			CHANNELS 3 Xrotation Yrotation Zrotation
			End Site
			{
				OFFSET 0.000000 7.496635 0.000000
			}
		}
	}
	JOINT FitGrandmaFacialAnim_Joint
	{
		OFFSET 1.150000 -86.211197 -1.220100
		CHANNELS 3 Xrotation Yrotation Zrotation
		End Site
		{
			OFFSET 0.000000 31.666618 0.000000
		}
	}
}
MOTION
Frames: 4
Frame Time: 0.016667
-1.320684 80.766800 1.160787 -6.082175 -42.982104 -3.907638 -0.000000 -0.000001 -0.000000 -25.340050 6.303172 15.122041 35.262839 -16.826154 -0.589769 -7.662770 2.446705 -7.837007 -0.000000 -0.000000 -0.000000 0.000001 -0.000003 0.000001 -0.000002 -0.000001 0.000002 1.487323 -14.965172 -15.169418 33.190403 -8.179706 -0.390224 -26.486966 -5.405118 18.528152 -0.000000 0.000001 0.000000 0.000001 -0.000002 -0.000000 0.000001 -0.000003 -0.000000 5.842011 4.581405 -1.345696 11.836801 9.036872 -3.086778 11.836808 9.036864 -3.086778 -4.023276 -0.974174 0.382902 -6.479893 20.161238 -0.594154 -0.000000 0.000000 -0.000000 -0.000000 0.000000 -0.000000 -0.000000 0.000000 -0.000000 -0.000000 0.000000 -0.000000 -0.000000 0.000000 -0.000000 -0.000000 0.000000 -0.000000 -0.000000 0.000000 -0.000000 -0.000000 0.000000 -0.000000 -0.000000 0.000000 -0.000000 -0.000000 0.000000 -0.000000 -0.000000 0.000000 -0.000000 -0.000000 0.000000 -0.000000 -0.000000 0.000000 -0.000000 -0.000000 0.000000 -0.000000 -0.000000 0.000000 -0.000000 -0.000000 0.000000 -0.000000 -0.000000 0.000000 -0.000000 -0.000000 0.000000 -0.000000 -0.000000 0.000000 -0.000000 1.392490 -0.696037 -7.877865 -14.270851 2.385512 -63.280746 9.855341 -47.499348 5.919348 16.172158 0.901950 18.796322 9.163416 4.814152 -5.499000 -0.335225 0.032296 0.783667 0.000000 0.000002 0.000003 -0.901997 -6.980969 -3.808332 0.033598 0.804072 -16.418743 -0.000001 -0.000001 0.000004 1.947922 9.683066 -14.539676 -0.463681 -1.564336 -21.881331 -0.000001 -0.000002 0.000000 2.605951 14.896808 -31.345172 -0.576891 -2.712535 -32.011413 0.000000 -0.000001 -0.000000 4.170668 18.495000 -34.987244 -0.707115 -5.788812 -39.372810 0.000002 -0.000002 0.000000 0.000002 -0.000006 0.000002 1.409762 9.464712 9.801443 1.234172 -24.280856 60.535550 -6.660171 41.889000 8.039914 6.224112 12.306683 11.672641 -8.895690 -4.903129 -0.383791 7.905224 -19.193013 -2.856838 -0.000001 0.000001 0.000001 -1.085601 -1.215458 4.525560 0.141679 -1.114011 16.942819 -0.000001 0.000000 0.000001 -0.663698 -2.903877 12.731717 -0.661478 1.814913 30.579040 -0.000001 -0.000004 -0.000004 2.423538 -7.404552 21.763313 -0.989843 3.764223 37.431209 0.000001 0.000001 -0.000000 3.480949 -10.055096 24.322584 -1.458324 7.871994 41.091982 -0.000002 -0.000003 0.000000 0.000002 0.000001 -0.000001 0.000000 -0.000000 -0.000000 0.000000 -0.000000 -0.000000 0.000000 -0.000000 -0.000000 0.000000 -0.000000 -0.000000 0.000000 -0.000000 -0.000000 0.000000 -0.000000 -0.000000 0.000000 -0.000000 -0.000000 0.000000 -0.000000 -0.000000 0.000000 0.000004 -0.000000 -0.000000 -0.000001 -0.000000 
-1.288416 80.653641 0.938222 -4.766376 -41.692182 -3.544728 -0.000000 -0.000002 0.000000 -27.598641 6.960372 15.373619 35.869141 -15.059631 0.583434 -6.845523 0.740464 -7.860669 0.000000 0.000002 -0.000000 -0.000000 0.000005 -0.000000 -0.000002 0.000000 0.000001 0.749898 -15.011791 -14.519490 33.687388 -7.900080 -0.183327 -26.784741 -5.357079 18.480120 0.000000 0.000002 0.000000 -0.000003 -0.000001 0.000001 0.000000 -0.000005 0.000001 5.888077 4.497571 -1.298628 11.918893 8.877106 -2.961021 11.918898 8.877111 -2.961026 -4.393511 -1.244335 0.135178 -6.869571 19.864929 -0.425488 0.000000 0.000000 0.000000 0.000000 0.000000 0.000000 0.000000 0.000000 0.000000 0.000000 0.000000 0.000000 0.000000 0.000000 0.000000 0.000000 0.000000 0.000000 0.000000 0.000000 0.000000 0.000000 0.000000 0.000000 0.000000 0.000000 0.000000 0.000000 0.000000 0.000000 0.000000 0.000000 0.000000 0.000000 0.000000 0.000000 0.000000 0.000000 0.000000 0.000000 0.000000 0.000000 0.000000 0.000000 0.000000 0.000000 0.000000 0.000000 0.000000 0.000000 0.000000 0.000000 0.000000 0.000000 0.000000 0.000000 0.000000 1.570212 -1.339777 -7.270730 -11.927846 2.709220 -62.623839 11.392388 -50.094895 6.156098 15.214487 1.370617 16.884518 9.193354 5.062682 -5.652772 -0.335226 0.032297 0.783636 -0.000001 0.000002 0.000004 -0.796943 -6.938160 -3.289521 0.025945 0.778729 -16.637007 0.000001 0.000000 0.000001 1.901921 9.733005 -14.095525 -0.466258 -1.570622 -21.943800 -0.000000 -0.000001 -0.000003 2.724062 14.868115 -31.650407 -0.590197 -2.733290 -32.416481 0.000006 0.000000 0.000000 4.123951 18.303054 -35.053996 -0.711770 -5.794197 -39.703975 -0.000001 -0.000003 -0.000001 -0.000002 -0.000003 0.000002 1.547675 9.347144 9.092338 0.556994 -22.906433 60.241367 -3.542688 42.903895 5.840075 7.677643 11.184454 10.633517 -8.650336 -5.353446 -1.233064 7.621878 -18.559364 -2.849212 -0.000001 0.000001 -0.000001 -1.069539 -1.687648 5.364285 0.057426 -0.857540 19.622041 -0.000001 0.000000 -0.000000 -0.869351 -2.826906 14.623768 -0.785357 2.015677 33.206102 -0.000000 0.000002 -0.000001 2.549539 -6.904381 24.300662 -1.124972 3.934998 39.943933 -0.000000 0.000000 0.000005 3.462094 -9.593483 26.501032 -1.572218 7.998035 43.304328 -0.000001 0.000001 -0.000001 0.000002 0.000000 0.000001 0.000001 -0.000002 0.000000 0.000001 -0.000002 0.000000 0.000001 -0.000002 0.000000 0.000001 -0.000002 0.000000 0.000001 -0.000002 0.000000 0.000001 -0.000002 0.000000 0.000003 -0.000000 -0.000000 0.000003 -0.000000 -0.000000 0.000000 -0.000002 0.000000 -0.000000 -0.000002 0.000000 
-1.246837 80.495102 0.684532 -3.373165 -40.404066 -3.316513 -0.000000 0.000001 -0.000000 -30.059963 7.237003 15.965058 36.394704 -12.818689 1.389724 -5.960217 -1.132101 -8.013601 0.000000 0.000003 0.000000 0.000000 -0.000000 0.000000 0.000002 0.000001 -0.000001 -0.404853 -15.893213 -13.437780 34.311916 -7.081839 -1.113493 -26.989592 -5.376904 18.724528 0.000000 -0.000000 -0.000000 0.000000 -0.000001 0.000001 0.000000 0.000001 -0.000001 5.937078 4.401009 -1.230557 12.004169 8.695481 -2.784136 12.004167 8.695492 -2.784140 -4.402250 -1.432517 -0.308002 -7.743045 19.546104 -0.146669 0.000000 0.000000 -0.000000 0.000000 0.000000 -0.000000 0.000000 0.000000 -0.000000 0.000000 0.000000 -0.000000 0.000000 0.000000 -0.000000 0.000000 0.000000 -0.000000 0.000000 0.000000 -0.000000 0.000000 0.000000 -0.000000 0.000000 0.000000 -0.000000 0.000000 0.000000 -0.000000 0.000000 0.000000 -0.000000 0.000000 0.000000 -0.000000 0.000000 0.000000 -0.000000 0.000000 0.000000 -0.000000 0.000000 0.000000 -0.000000 0.000000 0.000000 -0.000000 0.000000 0.000000 -0.000000 0.000000 0.000000 -0.000000 0.000000 0.000000 -0.000000 1.744172 -1.717849 -6.596194 -9.656323 2.899157 -62.029326 12.853439 -52.487046 6.201644 14.224887 1.951096 15.624080 9.323771 5.688821 -5.949684 -0.335218 0.032309 0.783667 -0.000001 -0.000001 0.000001 -0.782986 -6.833244 -3.456142 0.013104 0.736797 -16.998797 -0.000001 -0.000001 -0.000003 1.951594 9.750299 -14.576711 -0.472448 -1.585719 -22.093630 0.000002 -0.000002 0.000002 3.028767 14.536827 -33.148438 -0.631084 -2.795146 -33.635724 -0.000002 -0.000001 -0.000000 4.069948 17.795447 -35.410907 -0.726104 -5.810359 -40.707487 -0.000001 -0.000002 -0.000001 0.000001 -0.000002 0.000000 1.665578 8.672809 8.386890 -0.517095 -21.343894 59.835066 -0.867254 43.424051 3.841161 9.539175 9.854836 10.594334 -8.424787 -5.710900 -1.809471 7.405754 -18.074637 -2.841196 0.000000 -0.000000 0.000003 -1.037042 -2.082857 6.381570 -0.021289 -0.648466 21.839552 0.000000 0.000001 0.000003 -1.065007 -2.741165 16.363917 -0.904108 2.190635 35.561120 -0.000001 -0.000002 -0.000004 2.642168 -6.488013 26.411312 -1.248705 4.078754 42.132920 0.000002 0.000000 0.000001 3.458240 -9.126092 28.634626 -1.708300 8.136611 45.833438 -0.000005 -0.000001 -0.000003 -0.000000 -0.000001 0.000003 0.000001 -0.000001 -0.000000 0.000001 -0.000001 -0.000000 0.000001 -0.000001 -0.000000 0.000001 -0.000001 -0.000000 0.000001 -0.000001 -0.000000 0.000001 -0.000001 -0.000000 0.000001 -0.000001 -0.000000 0.000001 -0.000001 -0.000000 0.000000 -0.000002 0.000000 -0.000000 0.000001 -0.000000 
-1.215031 80.285309 0.395613 -1.930172 -39.117706 -3.156590 0.000000 -0.000002 -0.000000 -32.760634 7.593271 16.789669 36.882216 -10.356104 2.070642 -5.104144 -3.265609 -8.129783 -0.000000 -0.000003 0.000000 0.000000 -0.000001 -0.000000 0.000003 -0.000000 -0.000000 -1.781137 -16.924435 -12.185866 35.214376 -6.182155 -2.401538 -27.263723 -5.429782 19.088128 -0.000000 -0.000001 0.000000 -0.000002 0.000000 0.000004 -0.000000 -0.000000 -0.000002 5.990075 4.295293 -1.165885 12.097065 8.496686 -2.607072 12.097058 8.496702 -2.607073 -4.402062 -1.602834 -0.704803 -8.692113 19.262920 0.109189 0.000002 0.000000 -0.000000 0.000002 0.000000 -0.000000 0.000002 0.000000 -0.000000 0.000002 0.000000 -0.000000 0.000002 0.000000 -0.000000 0.000002 0.000000 -0.000000 0.000002 0.000000 -0.000000 0.000002 0.000000 -0.000000 0.000002 0.000000 -0.000000 0.000002 0.000000 -0.000000 0.000002 0.000000 -0.000000 0.000002 0.000000 -0.000000 0.000002 0.000000 -0.000000 0.000002 0.000000 -0.000000 0.000002 0.000000 -0.000000 0.000002 0.000000 -0.000000 0.000002 0.000000 -0.000000 0.000002 0.000000 -0.000000 0.000002 0.000000 -0.000000 1.920552 -2.204493 -5.946348 -7.362911 3.228204 -61.378231 14.333890 -54.674052 6.292070 13.459751 1.934159 13.988617 9.552675 6.521001 -6.281351 -0.335195 0.032310 0.783674 0.000004 -0.000001 -0.000002 -0.845283 -6.711943 -4.125699 -0.007809 0.670571 -17.571700 -0.000004 0.000001 -0.000001 2.022864 9.683093 -15.641254 -0.484480 -1.614733 -22.381768 -0.000003 -0.000002 0.000002 3.325903 14.067994 -34.924516 -0.685054 -2.872651 -35.188814 0.000002 0.000001 0.000002 4.168810 17.353829 -36.084016 -0.747013 -5.832950 -42.138606 0.000000 -0.000002 0.000001 0.000004 -0.000001 -0.000001 1.789079 8.381570 7.651969 -1.251859 -20.026748 59.610619 1.393160 43.948524 1.818026 11.192228 8.642882 11.211491 -7.961401 -5.906364 -2.217061 7.208757 -17.631845 -2.832196 0.000000 0.000002 -0.000000 -0.983920 -2.462982 7.369503 -0.096623 -0.468465 23.776563 0.000000 -0.000000 0.000001 -1.250094 -2.657357 17.910313 -1.020514 2.348291 37.744257 -0.000000 -0.000003 -0.000002 2.681780 -6.018261 28.379882 -1.362736 4.201922 44.070553 0.000002 -0.000002 -0.000003 3.439295 -8.676265 30.575260 -1.840081 8.259818 48.182972 -0.000003 -0.000001 -0.000000 0.000000 -0.000000 0.000003 -0.000002 -0.000000 0.000001 -0.000002 -0.000000 0.000001 -0.000002 -0.000000 0.000001 -0.000002 -0.000000 0.000001 -0.000002 -0.000000 0.000001 -0.000002 -0.000000 -0.000000 -0.000001 0.000001 -0.000001 -0.000001 0.000001 -0.000001 -0.000000 -0.000000 0.000000 0.000000 -0.000002 -0.000000 
